<svg width="127" height="62" viewBox="0 0 127 62" fill="none" xmlns="http://www.w3.org/2000/svg">
<g filter="url(#filter0_d_17_285)">
<path d="M5.66889 50.9775C3.9802 50.6924 3.40752 48.5552 4.72744 47.464L19.955 34.8749C21.6122 33.5048 23.9685 35.3576 23.0278 37.2912L19.7861 43.9551C19.3507 44.8503 19.6398 45.9294 20.4645 46.4869L26.6039 50.6372C28.3853 51.8414 27.2711 54.6241 25.1509 54.2662L5.66889 50.9775Z" fill="#0D33AF"/>
<path d="M5.75195 50.4849C4.48558 50.271 4.05605 48.6677 5.04576 47.8493L20.2732 35.2605C21.516 34.233 23.2835 35.6221 22.5785 37.0722L19.3363 43.7361C18.792 44.8549 19.1536 46.2039 20.1843 46.9008L26.3243 51.0517C27.6597 51.9551 26.8237 54.0418 25.2337 53.7734L5.75195 50.4849Z" stroke="white"/>
</g>
<g filter="url(#filter1_d_17_285)">
<rect x="26.7672" y="5" width="91" height="41" rx="20.5" fill="#0D33AF" fill-opacity="0.16" shape-rendering="crispEdges"/>
<rect x="27.2672" y="5.5" width="90" height="40" rx="20" stroke="#0D33AF" shape-rendering="crispEdges"/>
<path d="M37.6312 30.264C38.4792 29.32 38.9272 28.04 38.9912 25.896L39.0872 22.696H44.8952V30.264H43.5512V23.848H39.6312L40.3192 23.176L40.2232 26.04C40.1432 28.36 39.7272 29.432 39.0712 30.264H37.6312ZM37.9672 31V29.848H44.7992V31H37.9672ZM38.1112 32.92H36.8312V29.848H38.5112V31H38.1112V32.92ZM44.9272 32.92V31H44.5272V29.848H46.1912V32.92H44.9272ZM47.3145 31V22.696H48.6585V30.056H48.6905L52.3065 22.696H54.4665V31H53.1225V23.656H53.0905L49.4905 31H47.3145ZM59.2469 31.192C57.3909 31.192 56.1589 30.456 55.7269 28.92L57.0389 28.584C57.2949 29.608 58.0949 30.056 59.2469 30.056C60.4309 30.056 61.1029 29.496 61.1029 28.504C61.1029 27.752 60.5749 27.16 59.4389 27.16H58.0469V26.136H59.3909C60.3669 26.136 60.8309 25.656 60.8309 24.888C60.8309 24.136 60.2709 23.624 59.1989 23.624C58.1749 23.624 57.4549 24.056 57.1989 25L55.8869 24.696C56.2869 23.224 57.5029 22.504 59.2629 22.504C61.0389 22.504 62.2549 23.4 62.2549 24.792C62.2549 25.544 61.8229 26.312 60.8629 26.568V26.616C61.9989 26.872 62.5109 27.64 62.5109 28.616C62.5109 30.184 61.2309 31.192 59.2469 31.192ZM69.4195 31L68.8915 29.496V25.432C68.8915 24.328 68.2675 23.64 67.0995 23.64C66.0115 23.64 65.3715 24.136 65.1155 25.096L63.8355 24.76C64.1715 23.4 65.4035 22.504 67.1155 22.504C69.1955 22.504 70.2355 23.608 70.2355 25.464V29.32L70.8755 31H69.4195ZM66.3475 31.192C64.7155 31.192 63.5955 30.264 63.5955 28.824C63.5955 27.432 64.6355 26.552 66.3155 26.264L69.4195 25.736V26.744L66.8275 27.192C65.6275 27.4 65.0035 27.896 65.0035 28.776C65.0035 29.624 65.6115 30.104 66.6355 30.104C67.9795 30.104 68.8915 29.16 68.8915 27.752L69.5315 29.736H68.9715C68.4915 30.648 67.5475 31.192 66.3475 31.192ZM72.1558 31V22.696H73.4998V30.056H73.5318L77.1478 22.696H79.3078V31H77.9638V23.656H77.9318L74.3318 31H72.1558ZM75.7238 21.704C74.1078 21.704 73.3238 20.792 73.3238 19.24H74.4758C74.4758 20.264 74.8758 20.808 75.7238 20.808C76.5718 20.808 76.9878 20.264 76.9878 19.24H78.1238C78.1238 20.792 77.3398 21.704 75.7238 21.704ZM86.5998 31V22.696H87.9438V31H86.5998ZM81.1758 31V22.696H82.5358V31H81.1758ZM82.0238 27.288V26.12H87.0798V27.288H82.0238ZM93.3248 31.192C90.8608 31.192 89.3888 29.448 89.3888 26.808C89.3888 24.232 91.0368 22.504 93.2608 22.504C95.4848 22.504 96.9248 23.96 96.9248 26.328C96.9248 26.648 96.9248 26.968 96.9088 27.144H90.1888V26.104H96.0768L95.5808 26.344C95.6128 24.6 94.6848 23.608 93.2288 23.608C91.8528 23.608 90.7968 24.504 90.7968 26.616V26.856C90.7968 28.888 91.6608 30.04 93.4048 30.04C94.4608 30.04 95.1648 29.608 95.6288 28.68L96.7488 29.208C96.1568 30.536 94.9888 31.192 93.3248 31.192ZM98.3095 34.2V22.696H99.5735V24.216H99.6055C100.086 23.096 101.222 22.504 102.406 22.504C104.534 22.504 106.054 24.136 106.054 26.856C106.054 29.576 104.55 31.192 102.406 31.192C101.286 31.192 100.198 30.584 99.7015 29.512H99.6695V34.2H98.3095ZM102.134 30.024C103.606 30.024 104.646 28.92 104.646 26.856C104.646 24.792 103.606 23.672 102.134 23.672C100.63 23.672 99.5735 24.792 99.5735 26.856C99.5735 28.856 100.678 30.024 102.134 30.024Z" fill="#0D33AF"/>
</g>
<defs>
<filter id="filter0_d_17_285" x="0" y="33.4019" width="31.4913" height="27.8958" filterUnits="userSpaceOnUse" color-interpolation-filters="sRGB">
<feFlood flood-opacity="0" result="BackgroundImageFix"/>
<feColorMatrix in="SourceAlpha" type="matrix" values="0 0 0 0 0 0 0 0 0 0 0 0 0 0 0 0 0 0 127 0" result="hardAlpha"/>
<feOffset dy="3"/>
<feGaussianBlur stdDeviation="2"/>
<feComposite in2="hardAlpha" operator="out"/>
<feColorMatrix type="matrix" values="0 0 0 0 0 0 0 0 0 0 0 0 0 0 0 0 0 0 0.25 0"/>
<feBlend mode="normal" in2="BackgroundImageFix" result="effect1_dropShadow_17_285"/>
<feBlend mode="normal" in="SourceGraphic" in2="effect1_dropShadow_17_285" result="shape"/>
</filter>
<filter id="filter1_d_17_285" x="22.7672" y="4" width="99" height="49" filterUnits="userSpaceOnUse" color-interpolation-filters="sRGB">
<feFlood flood-opacity="0" result="BackgroundImageFix"/>
<feColorMatrix in="SourceAlpha" type="matrix" values="0 0 0 0 0 0 0 0 0 0 0 0 0 0 0 0 0 0 127 0" result="hardAlpha"/>
<feOffset dy="3"/>
<feGaussianBlur stdDeviation="2"/>
<feComposite in2="hardAlpha" operator="out"/>
<feColorMatrix type="matrix" values="0 0 0 0 0 0 0 0 0 0 0 0 0 0 0 0 0 0 0.11 0"/>
<feBlend mode="normal" in2="BackgroundImageFix" result="effect1_dropShadow_17_285"/>
<feBlend mode="normal" in="SourceGraphic" in2="effect1_dropShadow_17_285" result="shape"/>
</filter>
</defs>
</svg>
