<svg width="151" height="68" viewBox="0 0 151 68" fill="none" xmlns="http://www.w3.org/2000/svg">
<g filter="url(#filter0_d_17_308)">
<rect x="10" y="18" width="113" height="41" rx="20.5" fill="#FF3C00" fill-opacity="0.16" shape-rendering="crispEdges"/>
<rect x="10.5" y="18.5" width="112" height="40" rx="20" stroke="#FF3C00" shape-rendering="crispEdges"/>
<path d="M21.168 47.2V35.696H22.432V37.216H22.464C22.944 36.096 24.08 35.504 25.264 35.504C27.392 35.504 28.912 37.136 28.912 39.856C28.912 42.576 27.408 44.192 25.264 44.192C24.144 44.192 23.056 43.584 22.56 42.512H22.528V47.2H21.168ZM24.992 43.024C26.464 43.024 27.504 41.92 27.504 39.856C27.504 37.792 26.464 36.672 24.992 36.672C23.488 36.672 22.432 37.792 22.432 39.856C22.432 41.856 23.536 43.024 24.992 43.024ZM35.7843 44L35.2563 42.496V38.432C35.2563 37.328 34.6323 36.64 33.4643 36.64C32.3763 36.64 31.7363 37.136 31.4803 38.096L30.2003 37.76C30.5363 36.4 31.7683 35.504 33.4803 35.504C35.5603 35.504 36.6003 36.608 36.6003 38.464V42.32L37.2403 44H35.7843ZM32.7123 44.192C31.0803 44.192 29.9603 43.264 29.9603 41.824C29.9603 40.432 31.0003 39.552 32.6803 39.264L35.7843 38.736V39.744L33.1923 40.192C31.9923 40.4 31.3683 40.896 31.3683 41.776C31.3683 42.624 31.9763 43.104 33.0003 43.104C34.3443 43.104 35.2563 42.16 35.2563 40.752L35.8963 42.736H35.3363C34.8563 43.648 33.9123 44.192 32.7123 44.192ZM41.4016 44.192C39.5456 44.192 38.3136 43.456 37.8816 41.92L39.1936 41.584C39.4496 42.608 40.2496 43.056 41.4016 43.056C42.5856 43.056 43.2576 42.496 43.2576 41.504C43.2576 40.752 42.7296 40.16 41.5936 40.16H40.2016V39.136H41.5456C42.5216 39.136 42.9856 38.656 42.9856 37.888C42.9856 37.136 42.4256 36.624 41.3536 36.624C40.3296 36.624 39.6096 37.056 39.3536 38L38.0416 37.696C38.4416 36.224 39.6576 35.504 41.4176 35.504C43.1936 35.504 44.4096 36.4 44.4096 37.792C44.4096 38.544 43.9776 39.312 43.0176 39.568V39.616C44.1536 39.872 44.6656 40.64 44.6656 41.616C44.6656 43.184 43.3856 44.192 41.4016 44.192ZM46.0874 47.2V35.696H47.3514V37.216H47.3834C47.8634 36.096 48.9994 35.504 50.1834 35.504C52.3114 35.504 53.8314 37.136 53.8314 39.856C53.8314 42.576 52.3274 44.192 50.1834 44.192C49.0634 44.192 47.9754 43.584 47.4794 42.512H47.4474V47.2H46.0874ZM49.9114 43.024C51.3834 43.024 52.4234 41.92 52.4234 39.856C52.4234 37.792 51.3834 36.672 49.9114 36.672C48.4074 36.672 47.3514 37.792 47.3514 39.856C47.3514 41.856 48.4554 43.024 49.9114 43.024ZM60.7036 44L60.1756 42.496V38.432C60.1756 37.328 59.5516 36.64 58.3836 36.64C57.2956 36.64 56.6556 37.136 56.3996 38.096L55.1196 37.76C55.4556 36.4 56.6876 35.504 58.3996 35.504C60.4796 35.504 61.5196 36.608 61.5196 38.464V42.32L62.1596 44H60.7036ZM57.6316 44.192C55.9996 44.192 54.8796 43.264 54.8796 41.824C54.8796 40.432 55.9196 39.552 57.5996 39.264L60.7036 38.736V39.744L58.1116 40.192C56.9116 40.4 56.2876 40.896 56.2876 41.776C56.2876 42.624 56.8956 43.104 57.9196 43.104C59.2636 43.104 60.1756 42.16 60.1756 40.752L60.8156 42.736H60.2556C59.7756 43.648 58.8316 44.192 57.6316 44.192ZM67.1359 44.208C64.6559 44.208 63.1679 42.448 63.1679 39.04C63.1679 34.752 64.2239 32.944 67.6159 32.56L70.4319 32.224L70.5759 33.44L67.7759 33.744C65.2319 34.048 64.5439 35.152 64.3359 37.872H64.3839C64.8799 36.704 66.0959 35.92 67.4879 35.92C69.6799 35.92 71.0719 37.6 71.0719 40.032C71.0719 42.496 69.4719 44.208 67.1359 44.208ZM67.1359 43.008C68.7039 43.008 69.6799 41.872 69.6799 40.064C69.6799 38.256 68.7519 37.104 67.1679 37.104C65.5999 37.104 64.5919 38.24 64.5919 40.064C64.5919 41.872 65.5519 43.008 67.1359 43.008ZM76.0904 44.192C73.8184 44.192 72.0904 42.544 72.0904 39.856C72.0904 37.168 73.8184 35.504 76.0904 35.504C78.3464 35.504 80.0744 37.168 80.0744 39.856C80.0744 42.544 78.3464 44.192 76.0904 44.192ZM76.0904 43.024C77.4984 43.024 78.6664 42.032 78.6664 39.856C78.6664 37.68 77.4984 36.672 76.0904 36.672C74.6824 36.672 73.5144 37.68 73.5144 39.856C73.5144 42.032 74.6824 43.024 76.0904 43.024ZM82.9925 44V36.112H84.3525V44H82.9925ZM80.2245 36.848V35.696H87.1365V36.848H80.2245ZM90.6369 41.008C88.7169 41.008 87.6609 40.032 87.6609 38.24V35.696H89.0209V38.096C89.0209 39.312 89.5969 39.824 90.9409 39.824C91.6449 39.824 92.4289 39.648 93.0209 39.392V40.512C92.2849 40.848 91.5169 41.008 90.6369 41.008ZM92.9249 44V35.696H94.2849V44H92.9249ZM96.1605 44V35.696H97.5045V43.056H97.5365L101.153 35.696H103.313V44H101.969V36.656H101.937L98.3365 44H96.1605ZM110.716 44L107.788 39.472L110.668 35.696H112.22L108.78 40.08L108.908 38.976L112.236 44H110.716ZM105.18 44V35.696H106.54V44H105.18ZM105.756 40.128V38.96H108.46V40.128H105.756Z" fill="#FF3C00"/>
</g>
<g filter="url(#filter1_d_17_308)">
<path d="M140.667 15.5775C141.66 14.1819 140.553 12.2657 138.848 12.4274L119.179 14.2931C117.038 14.4961 116.682 17.4723 118.715 18.1745L125.719 20.5944C126.66 20.9194 127.219 21.8869 127.03 22.8643L125.623 30.1402C125.215 32.2513 127.97 33.4312 129.217 31.6788L140.667 15.5775Z" fill="#FF3C00"/>
<path d="M140.26 15.2879C141.004 14.2412 140.174 12.8038 138.896 12.925L119.227 14.7907C117.621 14.943 117.354 17.1751 118.878 17.7019L125.882 20.1214C127.058 20.5277 127.756 21.7372 127.52 22.9588L126.114 30.2356C125.808 31.8186 127.875 32.7031 128.81 31.389L140.26 15.2879Z" stroke="white"/>
</g>
<defs>
<filter id="filter0_d_17_308" x="6" y="17" width="121" height="49" filterUnits="userSpaceOnUse" color-interpolation-filters="sRGB">
<feFlood flood-opacity="0" result="BackgroundImageFix"/>
<feColorMatrix in="SourceAlpha" type="matrix" values="0 0 0 0 0 0 0 0 0 0 0 0 0 0 0 0 0 0 127 0" result="hardAlpha"/>
<feOffset dy="3"/>
<feGaussianBlur stdDeviation="2"/>
<feComposite in2="hardAlpha" operator="out"/>
<feColorMatrix type="matrix" values="0 0 0 0 0 0 0 0 0 0 0 0 0 0 0 0 0 0 0.11 0"/>
<feBlend mode="normal" in2="BackgroundImageFix" result="effect1_dropShadow_17_308"/>
<feBlend mode="normal" in="SourceGraphic" in2="effect1_dropShadow_17_308" result="shape"/>
</filter>
<filter id="filter1_d_17_308" x="113.367" y="11.4178" width="31.675" height="28.1102" filterUnits="userSpaceOnUse" color-interpolation-filters="sRGB">
<feFlood flood-opacity="0" result="BackgroundImageFix"/>
<feColorMatrix in="SourceAlpha" type="matrix" values="0 0 0 0 0 0 0 0 0 0 0 0 0 0 0 0 0 0 127 0" result="hardAlpha"/>
<feOffset dy="3"/>
<feGaussianBlur stdDeviation="2"/>
<feComposite in2="hardAlpha" operator="out"/>
<feColorMatrix type="matrix" values="0 0 0 0 0 0 0 0 0 0 0 0 0 0 0 0 0 0 0.25 0"/>
<feBlend mode="normal" in2="BackgroundImageFix" result="effect1_dropShadow_17_308"/>
<feBlend mode="normal" in="SourceGraphic" in2="effect1_dropShadow_17_308" result="shape"/>
</filter>
</defs>
</svg>
