<svg width="197" height="42" viewBox="0 0 197 42" fill="none" xmlns="http://www.w3.org/2000/svg">
<path d="M27.7397 32.3357C28.1464 32.7423 28.6321 32.9457 29.1969 32.9457C29.6262 32.9457 30.0216 32.8214 30.383 32.5729C30.7671 32.3244 31.0608 31.816 31.2641 31.0479C32.3712 28.2691 33.4443 25.8743 34.4835 23.8636C35.5228 21.8529 36.5507 20.1584 37.5674 18.7803C38.584 17.4022 39.6007 16.2726 40.6173 15.3915C41.6566 14.5104 42.7071 13.7987 43.7689 13.2565C44.5597 12.8499 45.1471 12.5223 45.5311 12.2737C45.9152 12.0252 46.1637 11.788 46.2767 11.5621C46.4122 11.3362 46.48 11.0877 46.48 10.8165C46.48 10.4099 46.3445 10.0145 46.0733 9.63045C45.8022 9.24639 45.2374 9.05435 44.3789 9.05435C42.8653 9.05435 41.1708 9.76601 39.2957 11.1893C38.1661 12.0252 37.0816 13.1548 36.0424 14.5782C35.0257 16.0015 34.0204 17.6168 33.0263 19.4242C33.1167 18.1816 33.1054 17.2327 32.9924 16.5776C32.9021 15.8998 32.6649 15.4593 32.2808 15.2559C31.9193 15.03 31.5126 14.917 31.0608 14.917C30.496 14.917 30.0103 15.1091 29.6036 15.4931C29.1969 15.8546 28.971 16.4646 28.9258 17.3231C28.8807 18.0235 28.7903 18.8707 28.6547 19.8647C28.5418 20.8588 28.3949 21.9093 28.2142 23.0164C28.1835 23.2311 28.1524 23.4441 28.1209 23.6555C27.9496 23.7993 27.771 23.9477 27.5851 24.1008C26.817 24.7334 25.9246 25.2869 24.908 25.7613C23.8913 26.2357 22.7391 26.473 21.4513 26.473C20.7058 26.473 20.1297 26.2019 19.723 25.6596C19.3164 25.0948 19.0227 24.3945 18.8419 23.5586C18.6838 22.7001 18.6047 21.819 18.6047 20.9153C18.6047 19.1079 18.4918 17.6507 18.2658 16.5437C18.0625 15.4367 17.7688 14.5894 17.3847 14.002C17.0007 13.3921 16.5488 12.9854 16.0292 12.7821C15.5322 12.5561 15.0013 12.4432 14.4364 12.4432C13.7813 12.4432 13.0922 12.8047 12.3693 13.5276C11.6463 14.2506 10.9121 15.1881 10.1665 16.3403C9.42097 17.47 8.67542 18.6899 7.92988 20.0003C7.20693 21.3106 6.51786 22.5645 5.86269 23.7619C5.2301 24.9367 4.654 25.9195 4.13438 26.7102C4.29253 25.7387 4.50715 24.7108 4.77826 23.6263C5.07196 22.5193 5.38825 21.4349 5.72713 20.3731C6.08861 19.2886 6.42749 18.2833 6.74379 17.357C7.08267 16.4307 7.35378 15.6513 7.55711 15.0187C7.76044 14.3635 7.8621 13.923 7.8621 13.6971C7.8621 12.3641 7.19563 11.6976 5.86269 11.6976C5.27529 11.6976 4.80085 11.8219 4.43938 12.0704C4.0779 12.2963 3.7729 12.7369 3.52439 13.3921C3.00477 14.7476 2.47385 16.1935 1.93164 17.7298C1.38942 19.266 0.926282 20.8023 0.542214 22.3386C0.180738 23.8749 0 25.3208 0 26.6763C0 27.6929 0.169442 28.5627 0.508326 29.2857C0.847209 29.9861 1.27646 30.5283 1.79608 30.9123C2.3383 31.2738 2.88051 31.4546 3.42273 31.4546C3.89716 31.4546 4.42808 31.1947 5.01548 30.6751C5.60288 30.1555 6.21287 29.4664 6.84545 28.6079C7.50062 27.7494 8.1558 26.8006 8.81098 25.7613C9.46615 24.6995 10.0987 23.6263 10.7087 22.5419C11.3187 21.4349 11.8835 20.3957 12.4031 19.4242C12.9454 18.4527 13.4085 17.6168 13.7926 16.9164C13.8603 17.2553 13.8942 17.6959 13.8942 18.2381C13.9168 18.7803 13.9281 19.4016 13.9281 20.102V20.4408C13.9281 23.0841 14.2105 25.1739 14.7753 26.7102C15.3401 28.2239 16.1986 29.3083 17.3508 29.9635C18.5256 30.5961 20.0054 30.9123 21.7902 30.9123C22.8521 30.9123 23.8913 30.6751 24.908 30.2007C25.7608 29.8027 26.5659 29.3173 27.3234 28.7444L27.2992 28.9129C27.2088 29.6811 27.1636 30.2346 27.1636 30.5735C27.1636 31.3416 27.3557 31.929 27.7397 32.3357Z" fill="#2A2A2A"/>
<path d="M64.864 32V21.888C64.864 19.04 63.392 17.728 61.248 17.728C58.688 17.728 56.992 19.584 56.992 22.496V32H54.272V15.68H56.8V18.208C57.696 16.384 59.392 15.296 61.856 15.296C65.376 15.296 67.584 17.408 67.584 21.568V32H64.864ZM77.2925 32.384C72.8445 32.384 69.3885 29.184 69.3885 23.872C69.3885 18.528 72.8445 15.296 77.2925 15.296C81.7405 15.296 85.1965 18.528 85.1965 23.872C85.1965 29.184 81.7405 32.384 77.2925 32.384ZM77.2925 29.984C80.0765 29.984 82.3805 28.032 82.3805 23.872C82.3805 19.68 80.0765 17.696 77.2925 17.696C74.5085 17.696 72.2045 19.68 72.2045 23.872C72.2045 28.032 74.5085 29.984 77.2925 29.984ZM87.102 32V15.68H89.63V17.824C90.302 16.256 91.774 15.296 93.694 15.296C94.11 15.296 94.59 15.36 94.878 15.456V17.92C94.398 17.856 94.11 17.824 93.694 17.824C91.646 17.824 89.822 19.2 89.822 22.272V32H87.102ZM102.556 32.384C97.7235 32.384 94.8435 28.96 94.8435 23.776C94.8435 18.72 98.0435 15.296 102.46 15.296C106.78 15.296 109.66 18.144 109.66 22.784C109.66 23.424 109.628 24.096 109.596 24.448H96.4115V22.304H107.964L106.94 22.848C107.004 19.456 105.212 17.568 102.364 17.568C99.7395 17.568 97.6275 19.296 97.6275 23.392V23.872C97.6275 27.84 99.3235 30.08 102.684 30.08C104.828 30.08 106.172 29.152 107.068 27.168L109.34 28.16C108.22 31.04 105.884 32.384 102.556 32.384ZM117.96 32.384C113.864 32.384 110.696 29.312 110.696 23.84C110.696 18.368 113.864 15.296 117.96 15.296C119.912 15.296 122.152 16.032 123.4 18.304V9.44H126.12V32H123.592V29.216C122.376 31.616 120.072 32.384 117.96 32.384ZM118.536 29.984C121.32 29.984 123.592 28.032 123.592 23.84C123.592 19.648 121.32 17.696 118.536 17.696C115.784 17.696 113.512 19.648 113.512 23.84C113.512 28.032 115.784 29.984 118.536 29.984ZM135.761 32.384C130.929 32.384 128.049 28.96 128.049 23.776C128.049 18.72 131.249 15.296 135.665 15.296C139.985 15.296 142.865 18.144 142.865 22.784C142.865 23.424 142.833 24.096 142.801 24.448H129.617V22.304H141.169L140.145 22.848C140.209 19.456 138.417 17.568 135.569 17.568C132.945 17.568 130.833 19.296 130.833 23.392V23.872C130.833 27.84 132.529 30.08 135.889 30.08C138.033 30.08 139.377 29.152 140.273 27.168L142.545 28.16C141.425 31.04 139.089 32.384 135.761 32.384ZM150.173 32.384C146.813 32.384 144.445 30.848 143.677 27.456L146.237 26.784C146.813 29.184 148.157 30.176 150.269 30.176C152.285 30.176 153.405 29.312 153.405 27.616C153.405 26.208 152.765 25.44 151.037 24.928L148.221 24.096C146.013 23.424 144.669 22.048 144.669 19.84C144.669 17.088 147.005 15.296 150.269 15.296C153.341 15.296 155.549 16.544 156.189 19.232L153.661 20C153.085 18.304 151.965 17.536 150.205 17.536C148.381 17.536 147.421 18.432 147.421 19.648C147.421 20.8 148.029 21.504 149.437 21.92L152.157 22.752C154.525 23.488 156.189 24.64 156.189 27.488C156.189 30.592 153.757 32.384 150.173 32.384ZM157.927 32V15.68H160.647V32H157.927ZM159.303 13.184C158.279 13.184 157.415 12.352 157.415 11.296C157.415 10.24 158.279 9.408 159.303 9.408C160.359 9.408 161.223 10.24 161.223 11.296C161.223 12.352 160.359 13.184 159.303 13.184ZM170.247 38.784C166.375 38.784 163.719 37.248 162.823 33.792L165.255 32.928C165.863 35.136 167.431 36.512 170.215 36.512C173.479 36.512 175.303 34.88 175.303 31.392V28.352C174.183 30.688 171.911 31.424 169.863 31.424C165.735 31.424 162.567 28.352 162.567 23.36C162.567 18.368 165.735 15.296 169.863 15.296C171.943 15.296 174.247 16.064 175.431 18.464V15.68H178.023V30.88C177.991 36.32 175.239 38.784 170.247 38.784ZM170.439 29.024C173.191 29.024 175.495 27.136 175.495 23.36C175.495 19.616 173.191 17.696 170.439 17.696C167.655 17.696 165.415 19.616 165.415 23.392C165.415 27.104 167.655 29.024 170.439 29.024ZM191.287 32V21.888C191.287 19.04 189.815 17.728 187.671 17.728C185.111 17.728 183.415 19.584 183.415 22.496V32H180.695V15.68H183.223V18.208C184.119 16.384 185.815 15.296 188.279 15.296C191.799 15.296 194.007 17.408 194.007 21.568V32H191.287Z" fill="#2A2A2A"/>
</svg>
